<svg width="302" height="349" viewBox="0 0 302 349" fill="none" xmlns="http://www.w3.org/2000/svg">
<path d="M94.5375 0.704367C93.9667 1.08806 93.396 1.47175 92.8079 1.86706C74.0485 14.5866 62.0393 33.3252 57.231 55.4644C52.9596 78.199 58.5249 102.4 71.3313 121.551C80.9521 135.138 92.5919 144.688 106.457 153.656C114.803 159.055 122.825 164.494 130.062 171.336C131.639 172.838 131.639 172.838 133.376 174.152C136.42 176.654 138.712 179.832 141.109 182.939C141.385 183.296 141.661 183.653 141.946 184.021C156.735 203.354 163.277 226.355 160.189 250.628C156.788 274.019 146.97 294.443 130.607 311.51C129.72 312.439 128.846 313.379 127.974 314.321C122.32 320.256 114.499 327.168 106.686 330.077C106.241 329.854 105.796 329.631 105.337 329.402C105.95 328.762 105.95 328.762 106.576 328.11C121.355 312.331 130.294 293.483 135.709 272.706C134.816 272.999 134.816 272.999 133.906 273.297C126.429 275.458 119.05 275.709 111.327 275.744C110.813 275.75 110.3 275.757 109.771 275.764C102.239 275.845 95.6971 274.828 88.463 272.706C87.6816 272.497 86.9003 272.287 86.0952 272.071C75.406 269.184 64.3917 263.255 56.7406 255.158C58.613 255.498 60.3997 255.918 62.2245 256.466C68.2208 258.192 74.0984 258.761 80.3215 258.701C81.0368 258.695 81.752 258.689 82.489 258.683C94.1628 258.509 108.871 255.314 117.681 246.94C118.252 246.33 118.252 246.33 118.835 245.709C118.208 245.857 118.208 245.857 117.569 246.008C115.644 246.46 113.717 246.907 111.791 247.354C111.133 247.509 110.476 247.664 109.799 247.824C96.6509 250.859 80.5527 251.736 67.5397 247.734C67.1074 247.607 66.6751 247.48 66.2297 247.349C54.5443 243.859 43.6912 238.175 34.4674 230.185C34.1042 229.874 33.7409 229.562 33.3667 229.241C20.2936 217.927 10.0095 203.69 4.72768 187.115C4.58173 186.659 4.43578 186.203 4.28541 185.733C3.62734 183.519 3.34737 182.482 4.09492 180.239C4.56039 180.802 5.02587 181.365 5.50545 181.945C18.3569 197.392 34.9802 209.134 55.3907 211.962C58.1224 212.107 60.8399 212.091 63.5744 212.046C64.2844 212.04 64.9943 212.034 65.7258 212.027C67.4555 212.012 69.1849 211.99 70.9144 211.962C70.5416 211.864 70.1688 211.766 69.7847 211.665C45.4051 205.184 24.7413 192.654 11.717 170.439C7.65739 163.219 4.75979 155.87 2.74503 147.842C2.62594 147.381 2.50686 146.921 2.38416 146.447C-2.8626 125.116 0.911432 101.957 10.1694 82.3725C10.3922 82.3725 10.6149 82.3725 10.8444 82.3725C10.864 82.9321 10.8837 83.4917 10.904 84.0682C11.3595 95.7047 12.185 106.439 16.2439 117.47C16.5241 118.246 16.8042 119.023 17.0929 119.824C17.8612 121.785 18.7016 123.673 19.6186 125.569C19.9562 126.271 20.2938 126.973 20.6416 127.696C27.5057 141.184 39.9361 155.671 54.7158 160.666C53.737 159.784 53.737 159.784 52.7384 158.884C44.2009 151.11 37.3445 143.133 31.7676 132.993C31.5474 132.594 31.3272 132.196 31.1003 131.785C20.9407 113.132 18.1192 89.6448 23.8782 69.0743C28.2065 54.6417 34.8563 41.5925 45.2375 30.5495C46.6571 29.0447 46.6571 29.0447 48.0006 27.3066C49.9802 24.855 52.2961 22.9596 54.7158 20.9527C55.3761 20.3941 56.0365 19.8355 56.7169 19.26C63.2105 13.8835 85.7014 -3.71365 94.5375 0.704367Z" fill="#EAEAEA"/>
<path d="M206.577 0.0295715C223.586 2.77404 238.913 13.4675 251.124 25.0025C251.628 25.4714 252.133 25.9404 252.653 26.4235C267.105 40.2942 278.619 61.1865 279.591 81.4953C279.608 82.424 279.622 83.3527 279.632 84.2814C279.642 85.0328 279.642 85.0328 279.652 85.7993C279.869 106.361 279.869 106.361 276.772 115.445C276.605 115.961 276.439 116.477 276.267 117.009C271.674 131.1 264.715 142.441 254.498 153.242C254.039 153.729 253.58 154.216 253.106 154.718C250.194 157.721 247.122 160.288 243.699 162.691C257.425 155.139 269.283 146.67 277.446 132.993C277.831 132.353 277.831 132.353 278.224 131.7C287.315 116.279 289.85 100.038 290.27 82.3726C295.738 89.3615 297.881 98.7748 299.467 107.344C299.686 108.513 299.931 109.678 300.181 110.841C304.587 133.752 298.184 157.846 285.538 177.091C271.891 195.377 251.588 208.583 228.85 211.962C230.169 213.28 232.586 212.831 234.377 212.848C253.65 212.848 270.987 205.425 285.546 193.063C286.1 192.641 286.654 192.219 287.225 191.785C291.422 188.267 294.81 183.53 297.695 178.889C298.732 182.002 297.455 184.378 296.429 187.411C296.215 188.044 296.001 188.678 295.78 189.331C291.06 202.8 283.234 213.91 273.397 224.111C272.898 224.652 272.4 225.193 271.886 225.751C265.101 232.921 256.431 237.806 247.749 242.334C246.651 242.91 246.651 242.91 245.532 243.497C240.51 245.882 235.453 247.166 230.032 248.324C229.353 248.47 228.673 248.615 227.974 248.765C223.716 249.61 219.689 249.941 215.352 249.758C215.307 246.875 215.293 244.118 215.681 241.251C218.227 221.831 213.842 202.327 205.227 184.964C204.888 184.278 204.888 184.278 204.543 183.578C200.176 174.917 194.269 167.481 188.072 160.062C187.004 158.641 187.004 158.641 187.004 157.291C187.707 156.939 188.41 156.587 189.134 156.223C212.099 144.516 231.755 126.197 240.137 101.297C241.211 97.9421 242.141 94.5565 243.024 91.1469C243.37 89.864 243.37 89.864 243.723 88.5552C248.49 67.7804 244.049 45.975 233.575 27.7022C226.86 17.0253 218.341 8.18591 207.645 1.44273C207.293 1.19912 206.94 0.955509 206.577 0.704515C206.577 0.481783 206.577 0.259052 206.577 0.0295715Z" fill="#EAEAEA"/>
<path d="M132.334 24.3271C132.334 26.352 132.334 26.352 131.678 28.5113C130.19 34.0137 129.966 40.4885 132.461 45.7144C133.939 48.1849 135.518 50.1368 137.734 51.9998C138.296 52.5479 138.296 52.5479 138.87 53.1071C145.827 59.3456 155.745 60.8276 164.64 62.4875C172.556 64.0055 180.434 66.4441 185.481 73.1313C186.17 74.1761 186.847 75.2295 187.508 76.2925C189.181 78.9709 190.907 80.3233 193.712 81.6551C196.264 82.8672 197.948 84.2798 199.829 86.4219C200.316 86.937 200.803 87.452 201.305 87.9827C202.903 90.3523 203.31 92.4032 203.878 95.1962C202.326 94.845 200.874 94.4102 199.375 93.8647C192.494 91.4284 184.961 90.3217 177.935 92.9182C176.892 93.4189 175.864 93.9535 174.856 94.5212C174.33 94.8153 173.805 95.1094 173.263 95.4124C166.316 99.6789 162.79 105.5 159.796 112.913C157.507 125.401 161.903 137.538 168.613 147.968C171.183 151.638 174.05 155.019 176.976 158.406C179.917 161.825 182.697 165.368 185.437 168.95C186.014 169.703 186.595 170.454 187.181 171.201C202.607 190.97 210.212 215.521 207.704 240.52C206.627 248.92 205.018 257.185 202.528 265.282C202.311 266.069 202.093 266.857 201.869 267.668C198.527 278.909 192.192 289.174 184.98 298.354C184.702 298.709 184.424 299.064 184.138 299.429C176.583 308.96 167.93 317.666 157.982 324.677C157.612 324.946 157.241 325.215 156.86 325.492C149.397 330.895 141.319 334.917 133.009 338.851C132.282 339.206 131.555 339.561 130.805 339.926C121.637 344.108 111.226 346.037 101.371 347.878C100.476 348.048 100.476 348.048 99.5629 348.221C95.8091 348.884 92.2745 349.075 88.4629 348.975C90.2279 347.21 91.9455 346.734 94.2843 345.853C109.171 340.07 122.085 331.583 133.684 320.627C134.181 320.166 134.678 319.705 135.19 319.23C156.149 299.124 168.362 269.373 168.973 240.525C169.224 213.38 158.279 190.087 140.71 169.913C127.627 154.88 122.657 141.338 123.56 121.519C124.232 112.546 127.947 104.834 132.49 97.2184C133.408 95.6636 134.258 94.1244 135.034 92.4964C134.487 92.3563 133.94 92.2162 133.376 92.0719C123.606 89.3536 116.165 84.3879 110.863 75.665C107.688 69.889 106.314 65.3591 106.686 58.7492C107.146 59.2086 107.605 59.668 108.078 60.1413C108.392 60.4502 108.705 60.759 109.028 61.0773C109.72 61.7789 110.396 62.4985 111.052 63.2339C115.898 68.4955 123.236 73.1761 130.534 73.714C131.809 73.7229 133.085 73.6675 134.359 73.598C133.691 73.1943 133.023 72.7906 132.334 72.3747C126.268 68.0189 122.279 60.611 120.86 53.3497C120.092 43.6997 121.942 35.3482 128.285 27.7019C129.582 26.446 130.877 25.4027 132.334 24.3271Z" fill="#EAEAEA"/>
<path d="M243.026 255.157C243.471 255.38 243.916 255.603 244.375 255.832C236.607 262.685 227.798 267.267 218.053 270.681C217.04 271.087 216.027 271.495 215.015 271.904C212.902 272.621 211.478 272.912 209.278 272.706C209.995 269.341 210.777 266.017 211.691 262.7C211.871 262.043 212.052 261.385 212.238 260.708C212.375 260.213 212.512 259.717 212.653 259.207C213.128 259.201 213.603 259.194 214.093 259.188C224.272 259.018 233.34 258.386 243.026 255.157Z" fill="#EAEAEA"/>
<path d="M166.757 77.6482C170.662 77.5775 174.379 77.6533 178.231 78.3232C177.556 80.348 177.556 80.348 176.459 81.1495C174.212 81.9182 172.493 81.9464 170.132 81.6979C168.149 80.4324 168.149 80.4324 166.757 78.9981C166.757 78.5527 166.757 78.1072 166.757 77.6482Z" fill="black"/>
</svg>
