<svg width="192" height="70" viewBox="0 0 192 70" fill="none" xmlns="http://www.w3.org/2000/svg">
<path d="M18.809 0.14014C18.6955 0.216479 18.5819 0.292817 18.4649 0.371469C14.7326 2.90213 12.3433 6.63034 11.3866 11.0351C10.5368 15.5584 11.644 20.3734 14.192 24.1838C16.1061 26.8869 18.4219 28.787 21.1806 30.5713C22.8411 31.6454 24.4371 32.7275 25.8769 34.0888C26.1908 34.3877 26.1908 34.3877 26.5363 34.649C27.142 35.1469 27.5979 35.7791 28.0748 36.3974C28.1298 36.4684 28.1847 36.5395 28.2414 36.6127C31.1838 40.4591 32.4853 45.0354 31.871 49.8648C31.1942 54.5186 29.241 58.5821 25.9853 61.9778C25.8089 62.1625 25.635 62.3496 25.4614 62.537C24.3366 63.7179 22.7806 65.0929 21.2262 65.6717C21.1376 65.6274 21.0489 65.5831 20.9576 65.5374C21.0797 65.4102 21.0797 65.4102 21.2042 65.2804C24.1445 62.141 25.9231 58.3912 27.0005 54.2574C26.8229 54.3155 26.8229 54.3155 26.6417 54.3749C25.1542 54.8048 23.6861 54.8547 22.1494 54.8617C22.0472 54.863 21.9451 54.8644 21.8398 54.8657C20.3414 54.8818 19.0398 54.6795 17.6005 54.2574C17.445 54.2156 17.2896 54.1739 17.1294 54.1309C15.0027 53.5565 12.8113 52.3769 11.289 50.7659C11.6616 50.8337 12.017 50.9172 12.3801 51.0261C13.5731 51.3696 14.7425 51.4828 15.9806 51.4709C16.123 51.4697 16.2653 51.4685 16.4119 51.4673C18.7345 51.4328 21.6608 50.797 23.4136 49.1309C23.5273 49.0097 23.5273 49.0097 23.6433 48.8859C23.5186 48.9154 23.5186 48.9154 23.3913 48.9454C23.0083 49.0354 22.625 49.1244 22.2417 49.2133C22.111 49.2442 21.9802 49.2751 21.8454 49.3069C19.2295 49.9106 16.0266 50.0852 13.4376 49.2888C13.3516 49.2635 13.2656 49.2383 13.177 49.2123C10.8521 48.518 8.69274 47.3871 6.85759 45.7974C6.78532 45.7354 6.71305 45.6735 6.63859 45.6096C4.03759 43.3585 1.99148 40.5259 0.940613 37.2282C0.911575 37.1375 0.882537 37.0467 0.852619 36.9532C0.72169 36.5127 0.665989 36.3064 0.814719 35.8602C0.90733 35.9722 0.99994 36.0842 1.09536 36.1996C3.65227 39.2729 6.95962 41.6091 11.0205 42.1716C11.564 42.2005 12.1046 42.1974 12.6487 42.1884C12.7899 42.1872 12.9312 42.186 13.0767 42.1848C13.4209 42.1816 13.7649 42.1772 14.109 42.1716C14.0349 42.1522 13.9607 42.1327 13.8843 42.1126C9.03373 40.8231 4.9225 38.3302 2.33121 33.9104C1.5235 32.474 0.947 31.0117 0.546147 29.4145C0.522454 29.3229 0.498761 29.2312 0.474349 29.1369C-0.569538 24.893 0.181337 20.2852 2.02329 16.3887C2.06761 16.3887 2.11192 16.3887 2.15758 16.3887C2.1615 16.5001 2.16541 16.6114 2.16945 16.7261C2.26006 19.0413 2.42431 21.1769 3.23187 23.3716C3.28761 23.5262 3.34335 23.6808 3.40077 23.84C3.55363 24.2303 3.72085 24.6058 3.9033 24.983C3.97046 25.1227 4.03763 25.2624 4.10683 25.4064C5.47249 28.0898 7.94562 30.9721 10.8862 31.9659C10.6914 31.7904 10.6914 31.7904 10.4928 31.6113C8.79416 30.0647 7.43001 28.4777 6.32045 26.4602C6.27663 26.3809 6.23281 26.3015 6.18767 26.2198C4.16633 22.5087 3.60497 17.8356 4.75078 13.743C5.61193 10.8714 6.93496 8.27521 9.0004 6.0781C9.28283 5.7787 9.28283 5.7787 9.55013 5.4329C9.94398 4.94512 10.4047 4.56802 10.8862 4.16872C11.0176 4.05759 11.1489 3.94645 11.2843 3.83195C12.5763 2.76225 17.051 -0.738864 18.809 0.14014Z" fill="#2F2F2F"/>
<path d="M41.1003 0.00585938C44.4844 0.551896 47.5337 2.67945 49.9632 4.97444C50.0636 5.06774 50.164 5.16104 50.2675 5.25717C53.1428 8.01686 55.4337 12.1736 55.627 16.2142C55.6305 16.399 55.6332 16.5837 55.6352 16.7685C55.6372 16.918 55.6372 16.918 55.6392 17.0705C55.6823 21.1615 55.6823 21.1615 55.0661 22.9688C55.033 23.0715 54.9998 23.1741 54.9657 23.2799C54.0519 26.0835 52.6673 28.3399 50.6347 30.4888C50.5433 30.5857 50.4519 30.6826 50.3577 30.7825C49.7783 31.38 49.167 31.8907 48.4861 32.3688C51.2169 30.8662 53.5763 29.1813 55.2004 26.4602C55.2769 26.3328 55.2769 26.3328 55.355 26.2028C57.1638 23.1347 57.6682 19.9035 57.7518 16.3887C58.8397 17.7793 59.266 19.6521 59.5815 21.3569C59.625 21.5897 59.6738 21.8214 59.7236 22.0529C60.6002 26.6112 59.3263 31.4048 56.8102 35.2339C54.095 38.8719 50.0557 41.4994 45.5318 42.1716C45.794 42.4339 46.275 42.3447 46.6313 42.3479C50.4658 42.3479 53.9151 40.8712 56.8118 38.4116C56.9221 38.3277 57.0323 38.2437 57.146 38.1572C57.9809 37.4573 58.655 36.5149 59.229 35.5916C59.4354 36.2109 59.1812 36.6836 58.9772 37.287C58.9346 37.4131 58.8919 37.5392 58.848 37.6692C57.9088 40.3489 56.3519 42.5593 54.3947 44.5888C54.2955 44.6965 54.1963 44.8041 54.0941 44.9151C52.7441 46.3416 51.0193 47.3136 49.2918 48.2145C49.0734 48.329 49.0734 48.329 48.8506 48.4458C47.8516 48.9205 46.8454 49.1759 45.7668 49.4063C45.6317 49.4353 45.4966 49.4642 45.3574 49.494C44.5102 49.6622 43.7091 49.728 42.8461 49.6917C42.8371 49.118 42.8344 48.5695 42.9116 47.9989C43.4182 44.1353 42.5457 40.2547 40.8318 36.8002C40.7643 36.6637 40.7643 36.6637 40.6955 36.5244C39.8268 34.8013 38.6515 33.3218 37.4185 31.8458C37.2061 31.5631 37.2061 31.5631 37.2061 31.2945C37.3459 31.2244 37.4858 31.1543 37.6299 31.082C42.1988 28.7527 46.1097 25.108 47.7774 20.154C47.991 19.4864 48.176 18.8128 48.3518 18.1345C48.4206 17.8792 48.4206 17.8792 48.4908 17.6188C49.4392 13.4855 48.5557 9.14711 46.4718 5.51158C45.1358 3.38732 43.4407 1.62864 41.3128 0.287021C41.2427 0.238552 41.1726 0.190083 41.1003 0.140145C41.1003 0.095831 41.1003 0.0515166 41.1003 0.00585938Z" fill="#2F2F2F"/>
<path d="M26.3292 4.84009C26.3292 5.24295 26.3292 5.24295 26.1986 5.67256C25.9026 6.76732 25.8579 8.05554 26.3544 9.09527C26.6484 9.5868 26.9627 9.97514 27.4035 10.3458C27.5154 10.4549 27.5154 10.4549 27.6295 10.5661C29.0138 11.8073 30.9869 12.1022 32.7566 12.4324C34.3317 12.7345 35.8991 13.2196 36.9031 14.5501C37.0404 14.758 37.175 14.9676 37.3065 15.1791C37.6393 15.7119 37.9827 15.981 38.5408 16.246C39.0485 16.4872 39.3836 16.7682 39.7578 17.1944C39.8547 17.2969 39.9516 17.3994 40.0515 17.5049C40.3695 17.9764 40.4505 18.3844 40.5635 18.9401C40.2546 18.8702 39.9657 18.7837 39.6676 18.6752C38.2985 18.1905 36.7997 17.9703 35.4019 18.4869C35.1943 18.5865 34.9898 18.6929 34.7892 18.8058C34.6846 18.8643 34.5801 18.9228 34.4724 18.9831C33.0901 19.832 32.3886 20.9901 31.7929 22.4651C31.3375 24.9496 32.2121 27.3645 33.547 29.4396C34.0585 30.1698 34.629 30.8424 35.2109 31.5163C35.7963 32.1965 36.3493 32.9014 36.8944 33.614C37.0093 33.7639 37.1249 33.9133 37.2414 34.062C40.3105 37.9952 41.8237 42.8797 41.3246 47.8537C41.1104 49.5249 40.7903 51.1692 40.2949 52.7802C40.2516 52.9368 40.2084 53.0935 40.1638 53.2549C39.4988 55.4915 38.2384 57.5338 36.8035 59.3602C36.7482 59.4308 36.693 59.5014 36.636 59.5741C35.1329 61.4702 33.4112 63.2024 31.432 64.5973C31.3583 64.6508 31.2846 64.7044 31.2087 64.7595C29.724 65.8346 28.1169 66.6347 26.4635 67.4173C26.3187 67.488 26.174 67.5586 26.0249 67.6314C24.2009 68.4634 22.1295 68.8471 20.1688 69.2134C19.9907 69.2472 19.9907 69.2472 19.809 69.2816C19.0622 69.4136 18.3589 69.4515 17.6006 69.4316C17.9517 69.0805 18.2935 68.9859 18.7588 68.8106C21.7207 67.66 24.2899 65.9714 26.5977 63.7916C26.6966 63.6999 26.7954 63.6081 26.8973 63.5136C31.0673 59.5133 33.4971 53.5941 33.6187 47.8546C33.6688 42.4538 31.4911 37.8195 27.9957 33.8057C25.3925 30.8147 24.4038 28.1204 24.5835 24.1773C24.7171 22.3919 25.4563 20.8577 26.3601 19.3424C26.5428 19.0331 26.7119 18.7269 26.8663 18.403C26.7574 18.3751 26.6486 18.3472 26.5364 18.3185C24.5926 17.7777 23.1122 16.7897 22.0572 15.0542C21.4257 13.905 21.1522 13.0038 21.2263 11.6887C21.3177 11.7801 21.4091 11.8715 21.5033 11.9656C21.5656 12.0271 21.6279 12.0885 21.6921 12.1519C21.83 12.2915 21.9643 12.4346 22.095 12.5809C23.0591 13.6278 24.5189 14.559 25.9709 14.666C26.2247 14.6678 26.4786 14.6568 26.732 14.643C26.5991 14.5626 26.4661 14.4823 26.3292 14.3996C25.1223 13.533 24.3285 12.0591 24.0463 10.6144C23.8934 8.69442 24.2615 7.03283 25.5235 5.51152C25.7815 5.26166 26.0393 5.05407 26.3292 4.84009Z" fill="#2F2F2F"/>
<path d="M48.352 50.766C48.4406 50.8103 48.5293 50.8546 48.6206 50.9003C47.0751 52.2637 45.3224 53.1754 43.3834 53.8546C43.1819 53.9354 42.9804 54.0165 42.7791 54.098C42.3586 54.2406 42.0753 54.2984 41.6377 54.2574C41.7804 53.588 41.9359 52.9267 42.1177 52.2667C42.1536 52.1359 42.1896 52.0051 42.2266 51.8703C42.2538 51.7718 42.2811 51.6732 42.3091 51.5717C42.4036 51.5705 42.4982 51.5692 42.5955 51.5679C44.6209 51.5342 46.425 51.4083 48.352 50.766Z" fill="#2F2F2F"/>
<path d="M33.1777 15.4487C33.9547 15.4346 34.6942 15.4497 35.4606 15.583C35.3263 15.9859 35.3263 15.9859 35.1081 16.1453C34.661 16.2983 34.319 16.3039 33.8492 16.2544C33.4547 16.0026 33.4547 16.0026 33.1777 15.7173C33.1777 15.6287 33.1777 15.54 33.1777 15.4487Z" fill="#2F2F2F"/>
<path d="M76.392 21.3664H84.648C85.16 21.3664 85.64 21.4624 86.088 21.6544C86.504 21.8464 86.856 22.1344 87.112 22.4864C87.368 22.8384 87.528 23.2544 87.592 23.7344C87.656 24.2144 87.592 24.7264 87.4 25.3024L85.736 30.1344C85.544 30.7104 85.224 31.2544 84.84 31.7344C84.456 32.2144 84.008 32.6304 83.496 32.9824C82.984 33.3344 82.472 33.5904 81.896 33.7824C81.32 33.9744 80.776 34.0704 80.264 34.0704H72.008C71.24 34.0704 70.632 33.9104 70.152 33.5264L68.712 37.7184H66.664L70.952 25.3024C71.144 24.7264 71.432 24.2144 71.816 23.7344C72.2 23.2544 72.616 22.8384 73.128 22.4864C73.64 22.1344 74.152 21.8464 74.728 21.6544C75.272 21.4624 75.816 21.3664 76.392 21.3664ZM72.712 32.0224H80.968C81.544 32.0224 82.088 31.8624 82.6 31.4784C83.112 31.1264 83.496 30.6784 83.688 30.1344L85.352 25.3024C85.512 24.7904 85.448 24.3744 85.192 23.9904C84.936 23.6064 84.52 23.4144 83.944 23.4144H75.688C75.112 23.4144 74.536 23.6064 74.024 23.9904C73.512 24.3744 73.16 24.7904 73 25.3024L71.272 30.2944C71.144 30.8064 71.208 31.2224 71.464 31.5424C71.72 31.8624 72.136 32.0224 72.712 32.0224ZM90.9253 30.6784L88.4933 37.7184H86.4453L92.0773 21.3664H94.1253L91.6293 28.6304H103.981L106.477 21.3664H108.525L102.893 37.7184H100.845L103.277 30.6784H90.9253ZM110.323 37.7184C109.747 37.7184 109.266 37.6224 108.851 37.4304C108.403 37.2384 108.083 36.9824 107.827 36.6304C107.571 36.2784 107.411 35.8624 107.347 35.3824C107.283 34.9024 107.379 34.3584 107.571 33.7824L110.515 25.3024C110.707 24.7264 110.995 24.2144 111.379 23.7344C111.763 23.2544 112.179 22.8384 112.691 22.4864C113.203 22.1344 113.715 21.8464 114.291 21.6544C114.835 21.4624 115.379 21.3664 115.955 21.3664H124.211C124.723 21.3664 125.203 21.4624 125.651 21.6544C126.067 21.8464 126.419 22.1344 126.675 22.4864C126.931 22.8384 127.091 23.2544 127.155 23.7344C127.219 24.2144 127.155 24.7264 126.963 25.3024L124.019 33.7824C123.827 34.3584 123.539 34.9024 123.155 35.3824C122.771 35.8624 122.323 36.2784 121.811 36.6304C121.299 36.9824 120.787 37.2384 120.211 37.4304C119.635 37.6224 119.091 37.7184 118.579 37.7184H110.323ZM115.251 23.4144C114.675 23.4144 114.099 23.6064 113.587 23.9584C113.075 24.3424 112.723 24.7904 112.562 25.3024L109.619 33.7824C109.427 34.2944 109.491 34.7424 109.747 35.1264C110.003 35.5104 110.451 35.6704 111.027 35.6704H119.283C119.859 35.6704 120.403 35.5104 120.915 35.1264C121.427 34.7424 121.779 34.2944 121.971 33.7824L124.915 25.3024C125.075 24.7904 125.011 24.3424 124.755 23.9584C124.499 23.6064 124.083 23.4144 123.507 23.4144H115.251ZM130.104 37.7184C129.528 37.7184 129.048 37.6224 128.632 37.4304C128.184 37.2384 127.864 36.9824 127.608 36.6304C127.352 36.2784 127.192 35.8624 127.128 35.3824C127.064 34.9024 127.16 34.3584 127.352 33.7824L130.296 25.3024C130.488 24.7264 130.776 24.2144 131.16 23.7344C131.544 23.2544 131.96 22.8384 132.472 22.4864C132.984 22.1344 133.496 21.8464 134.072 21.6544C134.616 21.4624 135.16 21.3664 135.736 21.3664H146.328L145.624 23.4144H135.032C134.456 23.4144 133.88 23.6064 133.368 23.9904C132.856 24.3744 132.504 24.7904 132.344 25.3024L131.192 28.5664H143.032L142.328 30.6144H130.488L129.4 33.7824C129.208 34.2944 129.272 34.7424 129.528 35.1264C129.784 35.5104 130.232 35.6704 130.808 35.6704H141.4L140.696 37.7184H130.104ZM157.735 37.7184H156.007C155.431 37.7184 154.951 37.6224 154.535 37.4304C154.087 37.2384 153.767 36.9824 153.511 36.6304C153.255 36.2784 153.095 35.8624 153.031 35.3824C152.967 34.9024 153.063 34.3584 153.255 33.7824L156.199 25.3024C156.359 24.7904 156.295 24.3744 156.039 23.9904C155.783 23.6064 155.367 23.4144 154.791 23.4144H153.063C152.487 23.4144 151.911 23.6064 151.399 23.9904C150.887 24.3744 150.535 24.7904 150.375 25.3024L146.087 37.7184H144.039L148.327 25.3024C148.519 24.7264 148.807 24.2144 149.191 23.7344C149.575 23.2544 149.991 22.8384 150.503 22.4864C151.015 22.1344 151.527 21.8464 152.103 21.6544C152.647 21.4624 153.191 21.3664 153.767 21.3664H155.495C156.007 21.3664 156.487 21.4624 156.935 21.6544C157.351 21.8464 157.703 22.1344 157.959 22.4864C158.215 22.8384 158.375 23.2544 158.439 23.7344C158.503 24.2144 158.439 24.7264 158.247 25.3024L155.303 33.7824C155.111 34.2944 155.175 34.7424 155.431 35.1264C155.687 35.5104 156.135 35.6704 156.711 35.6704H158.439C159.015 35.6704 159.559 35.5104 160.071 35.1264C160.583 34.7424 160.935 34.2944 161.127 33.7824L165.415 21.3664H167.463L163.175 33.7824C162.983 34.3584 162.695 34.9024 162.311 35.3824C161.927 35.8624 161.479 36.2784 160.967 36.6304C160.455 36.9824 159.943 37.2384 159.367 37.4304C158.791 37.6224 158.247 37.7184 157.735 37.7184ZM167.212 37.7184H165.164L170.796 21.3664H172.844L167.212 37.7184ZM178.123 21.3664L181.483 27.9584L189.387 21.3664H191.979L182.187 29.5584L186.347 37.7184H183.755L180.395 31.1584L172.491 37.7184H169.899L179.691 29.5584L175.531 21.3664H178.123Z" fill="#2F2F2F"/>
<path d="M70.698 52.7184C70.446 52.7184 70.236 52.6764 70.054 52.5924C69.858 52.5084 69.718 52.3964 69.606 52.2424C69.494 52.0884 69.424 51.9064 69.396 51.6964C69.368 51.4864 69.41 51.2484 69.494 50.9964L70.782 47.2864C70.852 47.0624 70.824 46.8804 70.712 46.7124C70.6 46.5444 70.418 46.4604 70.166 46.4604H69.676C69.424 46.4604 69.172 46.5444 68.948 46.7124C68.724 46.8804 68.57 47.0624 68.5 47.2864L66.624 52.7184H65.728L67.604 47.2864C67.688 47.0344 67.814 46.8104 67.982 46.6004C68.15 46.3904 68.332 46.2084 68.556 46.0544C68.78 45.9004 69.004 45.7744 69.256 45.6904C69.494 45.6064 69.732 45.5644 69.984 45.5644H70.474C70.698 45.5644 70.908 45.6064 71.104 45.6904C71.286 45.7744 71.44 45.9004 71.552 46.0544C71.664 46.2084 71.734 46.3904 71.762 46.6004C71.79 46.8104 71.762 47.0344 71.678 47.2864L70.39 50.9964C70.306 51.2204 70.334 51.4164 70.446 51.5844C70.558 51.7524 70.754 51.8224 71.006 51.8224H71.482C71.734 51.8224 71.972 51.7524 72.196 51.5844C72.42 51.4164 72.574 51.2204 72.658 50.9964L73.946 47.2864C74.03 47.0344 74.156 46.8104 74.324 46.6004C74.492 46.3904 74.674 46.2084 74.898 46.0544C75.122 45.9004 75.346 45.7744 75.598 45.6904C75.836 45.6064 76.074 45.5644 76.326 45.5644H76.816C77.04 45.5644 77.25 45.6064 77.446 45.6904C77.628 45.7744 77.782 45.9004 77.894 46.0544C78.006 46.2084 78.076 46.3904 78.104 46.6004C78.132 46.8104 78.104 47.0344 78.02 47.2864L76.144 52.7184H75.248L77.124 47.2864C77.194 47.0624 77.166 46.8804 77.054 46.7124C76.942 46.5444 76.76 46.4604 76.508 46.4604H76.018C75.766 46.4604 75.514 46.5444 75.29 46.7124C75.066 46.8804 74.912 47.0624 74.842 47.2864L73.554 50.9964C73.47 51.2484 73.344 51.4864 73.176 51.6964C73.008 51.9064 72.812 52.0884 72.588 52.2424C72.364 52.3964 72.14 52.5084 71.888 52.5924C71.636 52.6764 71.398 52.7184 71.174 52.7184H70.698ZM82.3272 52.7184C82.0752 52.7184 81.8652 52.6764 81.6832 52.5924C81.4872 52.5084 81.3472 52.3964 81.2352 52.2424C81.1232 52.0884 81.0532 51.9064 81.0252 51.6964C80.9972 51.4864 81.0392 51.2484 81.1232 50.9964L82.9992 45.5644H83.8952L82.0192 50.9964C81.9352 51.2204 81.9632 51.4164 82.0752 51.5844C82.1872 51.7524 82.3832 51.8224 82.6352 51.8224H86.2472C86.4992 51.8224 86.7372 51.7524 86.9612 51.5844C87.1852 51.4164 87.3392 51.2204 87.4232 50.9964L89.2992 45.5644H90.1952L88.3192 50.9964C88.2352 51.2484 88.1092 51.4864 87.9412 51.6964C87.7732 51.9064 87.5772 52.0884 87.3532 52.2424C87.1292 52.3964 86.9052 52.5084 86.6532 52.5924C86.4012 52.6764 86.1632 52.7184 85.9392 52.7184H82.3272ZM98.2335 48.7144C98.4575 48.7144 98.6675 48.7564 98.8635 48.8404C99.0595 48.9244 99.2135 49.0504 99.3255 49.1904C99.4375 49.3444 99.4935 49.5264 99.5215 49.7364C99.5495 49.9464 99.5215 50.1704 99.4375 50.4224L99.2415 50.9964C99.1575 51.2484 99.0315 51.4864 98.8635 51.6964C98.6955 51.9064 98.4995 52.0884 98.2755 52.2424C98.0515 52.3964 97.8275 52.5084 97.5755 52.5924C97.3235 52.6764 97.0855 52.7184 96.8615 52.7184H92.1295L92.4375 51.8224H97.1695C97.4215 51.8224 97.6595 51.7524 97.8835 51.5844C98.1075 51.4164 98.2615 51.2204 98.3455 50.9964L98.5415 50.4224C98.6115 50.1984 98.5835 50.0164 98.4715 49.8484C98.3595 49.6944 98.1775 49.6104 97.9255 49.6104H94.9855C94.7335 49.6104 94.5235 49.5684 94.3415 49.4844C94.1595 49.4004 94.0195 49.2884 93.9075 49.1344C93.7955 48.9804 93.7255 48.7984 93.6975 48.5884C93.6695 48.3784 93.7115 48.1404 93.7955 47.8884L94.0055 47.2864C94.0895 47.0344 94.2155 46.8104 94.3835 46.6004C94.5515 46.3904 94.7335 46.2084 94.9575 46.0544C95.1815 45.9004 95.4055 45.7744 95.6575 45.6904C95.8955 45.6064 96.1335 45.5644 96.3855 45.5644H101.117L100.809 46.4604H96.0775C95.8255 46.4604 95.5735 46.5444 95.3495 46.7124C95.1255 46.8804 94.9715 47.0624 94.9015 47.2864L94.6915 47.8884C94.6075 48.1124 94.6355 48.3084 94.7475 48.4764C94.8595 48.6444 95.0415 48.7144 95.2935 48.7144H98.2335ZM103.95 52.7184H103.054L105.518 45.5644H106.414L103.95 52.7184ZM112.293 46.4604C112.041 46.4604 111.789 46.5444 111.565 46.6984C111.341 46.8664 111.187 47.0624 111.117 47.2864L109.829 50.9964C109.745 51.2204 109.773 51.4164 109.885 51.5844C109.997 51.7524 110.193 51.8224 110.445 51.8224H114.057C114.309 51.8224 114.547 51.7524 114.771 51.5844C114.995 51.4164 115.149 51.2204 115.233 50.9964L115.499 50.2404H116.395L116.129 50.9964C116.045 51.2484 115.919 51.4864 115.751 51.6964C115.583 51.9064 115.387 52.0884 115.163 52.2424C114.939 52.3964 114.715 52.5084 114.463 52.5924C114.211 52.6764 113.973 52.7184 113.749 52.7184H110.137C109.885 52.7184 109.675 52.6764 109.493 52.5924C109.297 52.5084 109.157 52.3964 109.045 52.2424C108.933 52.0884 108.863 51.9064 108.835 51.6964C108.807 51.4864 108.849 51.2484 108.933 50.9964L110.221 47.2864C110.305 47.0344 110.431 46.8104 110.599 46.6004C110.767 46.3904 110.949 46.2084 111.173 46.0544C111.397 45.9004 111.621 45.7744 111.873 45.6904C112.111 45.6064 112.349 45.5644 112.601 45.5644H116.213C116.437 45.5644 116.647 45.6064 116.843 45.6904C117.025 45.7744 117.179 45.9004 117.291 46.0544C117.403 46.2084 117.473 46.3904 117.501 46.6004C117.529 46.8104 117.501 47.0344 117.417 47.2864L117.151 48.0424H116.255L116.521 47.2864C116.591 47.0624 116.563 46.8664 116.451 46.6984C116.339 46.5444 116.157 46.4604 115.905 46.4604H112.293ZM129.245 51.8224H132.857C133.109 51.8224 133.347 51.7524 133.571 51.5844C133.795 51.4304 133.949 51.2344 134.033 50.9964L134.243 50.3944C134.313 50.1704 134.285 49.9884 134.173 49.8204C134.061 49.6524 133.879 49.5684 133.627 49.5684H131.009L131.331 48.6724H133.949C134.173 48.6724 134.383 48.7144 134.579 48.7984C134.761 48.8824 134.915 49.0084 135.027 49.1624C135.139 49.3164 135.195 49.4984 135.223 49.7084C135.251 49.9184 135.223 50.1424 135.139 50.3944L134.929 50.9964C134.845 51.2484 134.719 51.4864 134.551 51.6964C134.383 51.9064 134.187 52.0884 133.963 52.2424C133.739 52.3964 133.515 52.5084 133.263 52.5924C133.011 52.6764 132.773 52.7184 132.549 52.7184H128.937C128.685 52.7184 128.475 52.6764 128.293 52.5924C128.097 52.5084 127.957 52.3964 127.845 52.2424C127.733 52.0884 127.663 51.9064 127.635 51.6964C127.607 51.4864 127.649 51.2484 127.733 50.9964L129.021 47.2864C129.105 47.0344 129.231 46.8104 129.399 46.6004C129.567 46.3904 129.749 46.2084 129.973 46.0544C130.197 45.9004 130.421 45.7744 130.673 45.6904C130.911 45.6064 131.149 45.5644 131.401 45.5644H136.805L136.497 46.4604H131.093C130.841 46.4604 130.589 46.5444 130.365 46.7124C130.141 46.8804 129.987 47.0624 129.917 47.2864L128.629 50.9964C128.545 51.2344 128.573 51.4304 128.685 51.5844C128.797 51.7524 128.993 51.8224 129.245 51.8224ZM142.996 45.5644H146.608C146.832 45.5644 147.042 45.6064 147.238 45.6904C147.42 45.7744 147.574 45.9004 147.686 46.0544C147.798 46.2084 147.868 46.3904 147.896 46.6004C147.924 46.8104 147.896 47.0344 147.812 47.2864L147.084 49.3864C146.916 49.8344 146.65 50.2124 146.286 50.5064C145.908 50.8004 145.516 50.9824 145.096 51.0664L145.936 52.7184H144.802L143.976 51.1084H141.092C140.77 51.1084 140.49 51.0384 140.266 50.8704L139.636 52.7184H138.74L140.616 47.2864C140.7 47.0344 140.826 46.8104 140.994 46.6004C141.162 46.3904 141.344 46.2084 141.568 46.0544C141.792 45.9004 142.016 45.7744 142.268 45.6904C142.506 45.6064 142.744 45.5644 142.996 45.5644ZM141.4 50.2124H145.012C145.264 50.2124 145.502 50.1424 145.726 49.9744C145.95 49.8204 146.104 49.6244 146.188 49.3864L146.916 47.2864C146.986 47.0624 146.958 46.8804 146.846 46.7124C146.734 46.5444 146.552 46.4604 146.3 46.4604H142.688C142.436 46.4604 142.184 46.5444 141.96 46.7124C141.736 46.8804 141.582 47.0624 141.512 47.2864L140.756 49.4564C140.7 49.6804 140.742 49.8624 140.854 50.0024C140.966 50.1424 141.148 50.2124 141.4 50.2124ZM152.126 52.7184C151.874 52.7184 151.664 52.6764 151.482 52.5924C151.286 52.5084 151.146 52.3964 151.034 52.2424C150.922 52.0884 150.852 51.9064 150.824 51.6964C150.796 51.4864 150.838 51.2484 150.922 50.9964L152.21 47.2864C152.294 47.0344 152.42 46.8104 152.588 46.6004C152.756 46.3904 152.938 46.2084 153.162 46.0544C153.386 45.9004 153.61 45.7744 153.862 45.6904C154.1 45.6064 154.338 45.5644 154.59 45.5644H158.202C158.426 45.5644 158.636 45.6064 158.832 45.6904C159.014 45.7744 159.168 45.9004 159.28 46.0544C159.392 46.2084 159.462 46.3904 159.49 46.6004C159.518 46.8104 159.49 47.0344 159.406 47.2864L158.118 50.9964C158.034 51.2484 157.908 51.4864 157.74 51.6964C157.572 51.9064 157.376 52.0884 157.152 52.2424C156.928 52.3964 156.704 52.5084 156.452 52.5924C156.2 52.6764 155.962 52.7184 155.738 52.7184H152.126ZM154.282 46.4604C154.03 46.4604 153.778 46.5444 153.554 46.6984C153.33 46.8664 153.176 47.0624 153.106 47.2864L151.818 50.9964C151.734 51.2204 151.762 51.4164 151.874 51.5844C151.986 51.7524 152.182 51.8224 152.434 51.8224H156.046C156.298 51.8224 156.536 51.7524 156.76 51.5844C156.984 51.4164 157.138 51.2204 157.222 50.9964L158.51 47.2864C158.58 47.0624 158.552 46.8664 158.44 46.6984C158.328 46.5444 158.146 46.4604 157.894 46.4604H154.282ZM163.72 52.7184C163.468 52.7184 163.258 52.6764 163.076 52.5924C162.88 52.5084 162.74 52.3964 162.628 52.2424C162.516 52.0884 162.446 51.9064 162.418 51.6964C162.39 51.4864 162.432 51.2484 162.516 50.9964L164.392 45.5644H165.288L163.412 50.9964C163.328 51.2204 163.356 51.4164 163.468 51.5844C163.58 51.7524 163.776 51.8224 164.028 51.8224H167.64C167.892 51.8224 168.13 51.7524 168.354 51.5844C168.578 51.4164 168.732 51.2204 168.816 50.9964L170.692 45.5644H171.588L169.712 50.9964C169.628 51.2484 169.502 51.4864 169.334 51.6964C169.166 51.9064 168.97 52.0884 168.746 52.2424C168.522 52.3964 168.298 52.5084 168.046 52.5924C167.794 52.6764 167.556 52.7184 167.332 52.7184H163.72ZM177.779 45.5644H181.391C181.615 45.5644 181.825 45.6064 182.021 45.6904C182.203 45.7744 182.357 45.9004 182.469 46.0544C182.581 46.2084 182.651 46.3904 182.679 46.6004C182.707 46.8104 182.679 47.0344 182.595 47.2864L181.867 49.4004C181.783 49.6524 181.643 49.8904 181.475 50.1004C181.307 50.3104 181.111 50.4924 180.887 50.6464C180.663 50.8004 180.439 50.9124 180.187 50.9964C179.935 51.0804 179.697 51.1224 179.473 51.1224H175.861C175.525 51.1224 175.259 51.0524 175.049 50.8844L174.419 52.7184H173.523L175.399 47.2864C175.483 47.0344 175.609 46.8104 175.777 46.6004C175.945 46.3904 176.127 46.2084 176.351 46.0544C176.575 45.9004 176.799 45.7744 177.051 45.6904C177.289 45.6064 177.527 45.5644 177.779 45.5644ZM176.169 50.2264H179.781C180.033 50.2264 180.271 50.1564 180.495 49.9884C180.719 49.8344 180.887 49.6384 180.971 49.4004L181.699 47.2864C181.769 47.0624 181.741 46.8804 181.629 46.7124C181.517 46.5444 181.335 46.4604 181.083 46.4604H177.471C177.219 46.4604 176.967 46.5444 176.743 46.7124C176.519 46.8804 176.365 47.0624 176.295 47.2864L175.539 49.4704C175.483 49.6944 175.511 49.8764 175.623 50.0164C175.735 50.1564 175.917 50.2264 176.169 50.2264Z" fill="#2F2F2F"/>
</svg>
