<svg width="192" height="70" viewBox="0 0 192 70" fill="none" xmlns="http://www.w3.org/2000/svg">
<path d="M18.809 0.14014C18.6955 0.216479 18.5819 0.292817 18.4649 0.371469C14.7326 2.90213 12.3433 6.63034 11.3866 11.0351C10.5368 15.5584 11.644 20.3734 14.192 24.1838C16.1061 26.8869 18.4219 28.787 21.1806 30.5713C22.8411 31.6454 24.4371 32.7275 25.8769 34.0888C26.1908 34.3877 26.1908 34.3877 26.5363 34.649C27.142 35.1469 27.5979 35.7791 28.0748 36.3974C28.1298 36.4684 28.1847 36.5395 28.2414 36.6127C31.1838 40.4591 32.4853 45.0354 31.871 49.8648C31.1942 54.5186 29.241 58.5821 25.9853 61.9778C25.8089 62.1625 25.635 62.3496 25.4614 62.537C24.3366 63.7179 22.7806 65.0929 21.2262 65.6717C21.1376 65.6274 21.0489 65.5831 20.9576 65.5374C21.0797 65.4102 21.0797 65.4102 21.2042 65.2804C24.1445 62.141 25.9231 58.3912 27.0005 54.2574C26.8229 54.3155 26.8229 54.3155 26.6417 54.3749C25.1542 54.8048 23.6861 54.8547 22.1494 54.8617C22.0472 54.863 21.9451 54.8644 21.8398 54.8657C20.3414 54.8818 19.0398 54.6795 17.6005 54.2574C17.445 54.2156 17.2896 54.1739 17.1294 54.1309C15.0027 53.5565 12.8113 52.3769 11.289 50.7659C11.6616 50.8337 12.017 50.9172 12.3801 51.0261C13.5731 51.3696 14.7425 51.4828 15.9806 51.4709C16.123 51.4697 16.2653 51.4685 16.4119 51.4673C18.7345 51.4328 21.6608 50.797 23.4136 49.1309C23.5273 49.0097 23.5273 49.0097 23.6433 48.8859C23.5186 48.9154 23.5186 48.9154 23.3913 48.9454C23.0083 49.0354 22.625 49.1244 22.2417 49.2133C22.111 49.2442 21.9802 49.2751 21.8454 49.3069C19.2295 49.9106 16.0266 50.0852 13.4376 49.2888C13.3516 49.2635 13.2656 49.2383 13.177 49.2123C10.8521 48.518 8.69274 47.3871 6.85759 45.7974C6.78532 45.7354 6.71305 45.6735 6.63859 45.6096C4.03759 43.3585 1.99148 40.5259 0.940613 37.2282C0.911575 37.1375 0.882537 37.0467 0.852619 36.9532C0.72169 36.5127 0.665989 36.3064 0.814719 35.8602C0.90733 35.9722 0.99994 36.0842 1.09536 36.1996C3.65227 39.2729 6.95962 41.6091 11.0205 42.1716C11.564 42.2005 12.1046 42.1974 12.6487 42.1884C12.7899 42.1872 12.9312 42.186 13.0767 42.1848C13.4209 42.1816 13.7649 42.1772 14.109 42.1716C14.0349 42.1522 13.9607 42.1327 13.8843 42.1126C9.03373 40.8231 4.9225 38.3302 2.33121 33.9104C1.5235 32.474 0.947 31.0117 0.546147 29.4145C0.522454 29.3229 0.498761 29.2312 0.474349 29.1369C-0.569538 24.893 0.181337 20.2852 2.02329 16.3887C2.06761 16.3887 2.11192 16.3887 2.15758 16.3887C2.1615 16.5001 2.16541 16.6114 2.16945 16.7261C2.26006 19.0413 2.42431 21.1769 3.23187 23.3716C3.28761 23.5262 3.34335 23.6808 3.40077 23.84C3.55363 24.2303 3.72085 24.6058 3.9033 24.983C3.97046 25.1227 4.03763 25.2624 4.10683 25.4064C5.47249 28.0898 7.94562 30.9721 10.8862 31.9659C10.6914 31.7904 10.6914 31.7904 10.4928 31.6113C8.79416 30.0647 7.43001 28.4777 6.32045 26.4602C6.27663 26.3809 6.23281 26.3015 6.18767 26.2198C4.16633 22.5087 3.60497 17.8356 4.75078 13.743C5.61193 10.8714 6.93496 8.27521 9.0004 6.0781C9.28283 5.7787 9.28283 5.7787 9.55013 5.4329C9.94398 4.94512 10.4047 4.56802 10.8862 4.16872C11.0176 4.05759 11.1489 3.94645 11.2843 3.83195C12.5763 2.76225 17.051 -0.738864 18.809 0.14014Z" fill="white"/>
<path d="M41.1003 0.00584412C44.4844 0.55188 47.5337 2.67944 49.9632 4.97442C50.0636 5.06773 50.164 5.16103 50.2675 5.25716C53.1428 8.01685 55.4337 12.1736 55.627 16.2142C55.6305 16.3989 55.6332 16.5837 55.6352 16.7685C55.6372 16.918 55.6372 16.918 55.6392 17.0705C55.6823 21.1615 55.6823 21.1615 55.0661 22.9687C55.033 23.0714 54.9998 23.1741 54.9657 23.2799C54.0519 26.0835 52.6673 28.3399 50.6347 30.4888C50.5433 30.5857 50.4519 30.6826 50.3577 30.7825C49.7783 31.38 49.167 31.8907 48.4861 32.3688C51.2169 30.8662 53.5763 29.1813 55.2004 26.4602C55.2769 26.3328 55.2769 26.3328 55.355 26.2028C57.1638 23.1347 57.6682 19.9034 57.7518 16.3887C58.8397 17.7792 59.266 19.6521 59.5815 21.3569C59.625 21.5897 59.6738 21.8214 59.7236 22.0529C60.6002 26.6111 59.3263 31.4048 56.8102 35.2339C54.095 38.8719 50.0557 41.4994 45.5318 42.1716C45.794 42.4339 46.275 42.3447 46.6313 42.3479C50.4658 42.3479 53.9151 40.8712 56.8118 38.4116C56.9221 38.3277 57.0323 38.2437 57.146 38.1572C57.9809 37.4573 58.655 36.5149 59.229 35.5916C59.4354 36.2109 59.1812 36.6836 58.9772 37.287C58.9346 37.4131 58.8919 37.5392 58.848 37.6692C57.9088 40.3489 56.3519 42.5593 54.3947 44.5888C54.2955 44.6965 54.1963 44.8041 54.0941 44.9151C52.7441 46.3416 51.0193 47.3136 49.2918 48.2145C49.0734 48.329 49.0734 48.329 48.8506 48.4458C47.8516 48.9205 46.8454 49.1759 45.7668 49.4063C45.6317 49.4352 45.4966 49.4642 45.3574 49.494C44.5102 49.6622 43.7091 49.728 42.8461 49.6916C42.8371 49.118 42.8344 48.5695 42.9116 47.9989C43.4182 44.1353 42.5457 40.2547 40.8318 36.8002C40.7643 36.6637 40.7643 36.6637 40.6955 36.5244C39.8268 34.8013 38.6515 33.3218 37.4185 31.8458C37.2061 31.563 37.2061 31.563 37.2061 31.2945C37.3459 31.2244 37.4858 31.1543 37.6299 31.082C42.1988 28.7527 46.1097 25.108 47.7774 20.154C47.991 19.4864 48.176 18.8128 48.3518 18.1344C48.4206 17.8792 48.4206 17.8792 48.4908 17.6188C49.4392 13.4855 48.5557 9.1471 46.4718 5.51157C45.1358 3.3873 43.4407 1.62862 41.3128 0.287005C41.2427 0.238537 41.1726 0.190068 41.1003 0.14013C41.1003 0.0958157 41.1003 0.0515013 41.1003 0.00584412Z" fill="white"/>
<path d="M26.3292 4.84015C26.3292 5.24301 26.3292 5.24301 26.1986 5.67262C25.9026 6.76738 25.8579 8.0556 26.3544 9.09534C26.6484 9.58686 26.9627 9.97521 27.4035 10.3459C27.5154 10.4549 27.5154 10.4549 27.6295 10.5662C29.0138 11.8074 30.9869 12.1022 32.7566 12.4325C34.3317 12.7345 35.8991 13.2197 36.9031 14.5502C37.0404 14.758 37.175 14.9676 37.3065 15.1791C37.6393 15.712 37.9827 15.9811 38.5408 16.2461C39.0485 16.4872 39.3836 16.7683 39.7578 17.1945C39.8547 17.2969 39.9516 17.3994 40.0515 17.505C40.3695 17.9764 40.4505 18.3845 40.5635 18.9402C40.2546 18.8703 39.9657 18.7838 39.6676 18.6753C38.2985 18.1905 36.7997 17.9704 35.4019 18.487C35.1943 18.5866 34.9898 18.6929 34.7892 18.8059C34.6846 18.8644 34.5801 18.9229 34.4724 18.9832C33.0901 19.8321 32.3886 20.9902 31.7929 22.4652C31.3375 24.9496 32.2121 27.3645 33.547 29.4397C34.0585 30.1698 34.629 30.8425 35.2109 31.5164C35.7963 32.1965 36.3493 32.9014 36.8944 33.6141C37.0093 33.764 37.1249 33.9133 37.2414 34.062C40.3105 37.9952 41.8237 42.8798 41.3246 47.8538C41.1104 49.525 40.7903 51.1692 40.2949 52.7802C40.2516 52.9369 40.2084 53.0936 40.1638 53.255C39.4988 55.4915 38.2384 57.5339 36.8035 59.3602C36.7482 59.4309 36.693 59.5015 36.636 59.5742C35.1329 61.4703 33.4112 63.2025 31.432 64.5974C31.3583 64.6509 31.2846 64.7044 31.2087 64.7596C29.724 65.8346 28.1169 66.6347 26.4635 67.4174C26.3187 67.488 26.174 67.5587 26.0249 67.6314C24.2009 68.4634 22.1295 68.8471 20.1688 69.2135C19.9907 69.2473 19.9907 69.2473 19.809 69.2817C19.0622 69.4137 18.3589 69.4516 17.6006 69.4317C17.9517 69.0805 18.2935 68.986 18.7588 68.8106C21.7207 67.6601 24.2899 65.9715 26.5977 63.7917C26.6966 63.6999 26.7954 63.6082 26.8973 63.5137C31.0673 59.5134 33.4971 53.5942 33.6187 47.8547C33.6688 42.4539 31.4911 37.8196 27.9957 33.8058C25.3925 30.8147 24.4038 28.1205 24.5835 24.1773C24.7171 22.392 25.4563 20.8577 26.3601 19.3425C26.5428 19.0332 26.7119 18.7269 26.8663 18.403C26.7574 18.3752 26.6486 18.3473 26.5364 18.3186C24.5926 17.7778 23.1122 16.7898 22.0572 15.0543C21.4257 13.9051 21.1522 13.0038 21.2263 11.6887C21.3177 11.7801 21.4091 11.8715 21.5033 11.9657C21.5656 12.0271 21.6279 12.0886 21.6921 12.1519C21.83 12.2915 21.9643 12.4347 22.095 12.581C23.0591 13.6278 24.5189 14.5591 25.9709 14.6661C26.2247 14.6679 26.4786 14.6568 26.732 14.643C26.5991 14.5627 26.4661 14.4824 26.3292 14.3996C25.1223 13.533 24.3285 12.0591 24.0463 10.6144C23.8934 8.69448 24.2615 7.03289 25.5235 5.51158C25.7815 5.26172 26.0393 5.05413 26.3292 4.84015Z" fill="white"/>
<path d="M48.352 50.766C48.4406 50.8103 48.5293 50.8546 48.6206 50.9002C47.0751 52.2637 45.3224 53.1754 43.3834 53.8545C43.1819 53.9353 42.9804 54.0164 42.7791 54.0979C42.3586 54.2406 42.0753 54.2984 41.6377 54.2574C41.7804 53.5879 41.9359 52.9267 42.1177 52.2667C42.1536 52.1359 42.1896 52.0051 42.2266 51.8703C42.2538 51.7718 42.2811 51.6732 42.3091 51.5717C42.4036 51.5704 42.4982 51.5692 42.5955 51.5679C44.6209 51.5342 46.425 51.4083 48.352 50.766Z" fill="white"/>
<path d="M33.1777 15.4487C33.9547 15.4347 34.6942 15.4497 35.4606 15.583C35.3263 15.9859 35.3263 15.9859 35.1081 16.1454C34.661 16.2983 34.319 16.3039 33.8492 16.2545C33.4547 16.0027 33.4547 16.0027 33.1777 15.7173C33.1777 15.6287 33.1777 15.5401 33.1777 15.4487Z" fill="white"/>
<path d="M76.392 21.3663H84.648C85.16 21.3663 85.64 21.4623 86.088 21.6543C86.504 21.8463 86.856 22.1343 87.112 22.4863C87.368 22.8383 87.528 23.2543 87.592 23.7343C87.656 24.2143 87.592 24.7263 87.4 25.3023L85.736 30.1343C85.544 30.7103 85.224 31.2543 84.84 31.7343C84.456 32.2143 84.008 32.6303 83.496 32.9823C82.984 33.3343 82.472 33.5903 81.896 33.7823C81.32 33.9743 80.776 34.0703 80.264 34.0703H72.008C71.24 34.0703 70.632 33.9103 70.152 33.5263L68.712 37.7183H66.664L70.952 25.3023C71.144 24.7263 71.432 24.2143 71.816 23.7343C72.2 23.2543 72.616 22.8383 73.128 22.4863C73.64 22.1343 74.152 21.8463 74.728 21.6543C75.272 21.4623 75.816 21.3663 76.392 21.3663ZM72.712 32.0223H80.968C81.544 32.0223 82.088 31.8623 82.6 31.4783C83.112 31.1263 83.496 30.6783 83.688 30.1343L85.352 25.3023C85.512 24.7903 85.448 24.3743 85.192 23.9903C84.936 23.6063 84.52 23.4143 83.944 23.4143H75.688C75.112 23.4143 74.536 23.6063 74.024 23.9903C73.512 24.3743 73.16 24.7903 73 25.3023L71.272 30.2943C71.144 30.8063 71.208 31.2223 71.464 31.5423C71.72 31.8623 72.136 32.0223 72.712 32.0223ZM90.9253 30.6783L88.4933 37.7183H86.4453L92.0773 21.3663H94.1253L91.6293 28.6303H103.981L106.477 21.3663H108.525L102.893 37.7183H100.845L103.277 30.6783H90.9253ZM110.323 37.7183C109.747 37.7183 109.266 37.6223 108.851 37.4303C108.403 37.2383 108.083 36.9823 107.827 36.6303C107.571 36.2783 107.411 35.8623 107.347 35.3823C107.283 34.9023 107.379 34.3583 107.571 33.7823L110.515 25.3023C110.707 24.7263 110.995 24.2143 111.379 23.7343C111.763 23.2543 112.179 22.8383 112.691 22.4863C113.203 22.1343 113.715 21.8463 114.291 21.6543C114.835 21.4623 115.379 21.3663 115.955 21.3663H124.211C124.723 21.3663 125.203 21.4623 125.651 21.6543C126.067 21.8463 126.419 22.1343 126.675 22.4863C126.931 22.8383 127.091 23.2543 127.155 23.7343C127.219 24.2143 127.155 24.7263 126.963 25.3023L124.019 33.7823C123.827 34.3583 123.539 34.9023 123.155 35.3823C122.771 35.8623 122.323 36.2783 121.811 36.6303C121.299 36.9823 120.787 37.2383 120.211 37.4303C119.635 37.6223 119.091 37.7183 118.579 37.7183H110.323ZM115.251 23.4143C114.675 23.4143 114.099 23.6063 113.587 23.9583C113.075 24.3423 112.723 24.7903 112.562 25.3023L109.619 33.7823C109.427 34.2943 109.491 34.7423 109.747 35.1263C110.003 35.5103 110.451 35.6703 111.027 35.6703H119.283C119.859 35.6703 120.403 35.5103 120.915 35.1263C121.427 34.7423 121.779 34.2943 121.971 33.7823L124.915 25.3023C125.075 24.7903 125.011 24.3423 124.755 23.9583C124.499 23.6063 124.083 23.4143 123.507 23.4143H115.251ZM130.104 37.7183C129.528 37.7183 129.048 37.6223 128.632 37.4303C128.184 37.2383 127.864 36.9823 127.608 36.6303C127.352 36.2783 127.192 35.8623 127.128 35.3823C127.064 34.9023 127.16 34.3583 127.352 33.7823L130.296 25.3023C130.488 24.7263 130.776 24.2143 131.16 23.7343C131.544 23.2543 131.96 22.8383 132.472 22.4863C132.984 22.1343 133.496 21.8463 134.072 21.6543C134.616 21.4623 135.16 21.3663 135.736 21.3663H146.328L145.624 23.4143H135.032C134.456 23.4143 133.88 23.6063 133.368 23.9903C132.856 24.3743 132.504 24.7903 132.344 25.3023L131.192 28.5663H143.032L142.328 30.6143H130.488L129.4 33.7823C129.208 34.2943 129.272 34.7423 129.528 35.1263C129.784 35.5103 130.232 35.6703 130.808 35.6703H141.4L140.696 37.7183H130.104ZM157.735 37.7183H156.007C155.431 37.7183 154.951 37.6223 154.535 37.4303C154.087 37.2383 153.767 36.9823 153.511 36.6303C153.255 36.2783 153.095 35.8623 153.031 35.3823C152.967 34.9023 153.063 34.3583 153.255 33.7823L156.199 25.3023C156.359 24.7903 156.295 24.3743 156.039 23.9903C155.783 23.6063 155.367 23.4143 154.791 23.4143H153.063C152.487 23.4143 151.911 23.6063 151.399 23.9903C150.887 24.3743 150.535 24.7903 150.375 25.3023L146.087 37.7183H144.039L148.327 25.3023C148.519 24.7263 148.807 24.2143 149.191 23.7343C149.575 23.2543 149.991 22.8383 150.503 22.4863C151.015 22.1343 151.527 21.8463 152.103 21.6543C152.647 21.4623 153.191 21.3663 153.767 21.3663H155.495C156.007 21.3663 156.487 21.4623 156.935 21.6543C157.351 21.8463 157.703 22.1343 157.959 22.4863C158.215 22.8383 158.375 23.2543 158.439 23.7343C158.503 24.2143 158.439 24.7263 158.247 25.3023L155.303 33.7823C155.111 34.2943 155.175 34.7423 155.431 35.1263C155.687 35.5103 156.135 35.6703 156.711 35.6703H158.439C159.015 35.6703 159.559 35.5103 160.071 35.1263C160.583 34.7423 160.935 34.2943 161.127 33.7823L165.415 21.3663H167.463L163.175 33.7823C162.983 34.3583 162.695 34.9023 162.311 35.3823C161.927 35.8623 161.479 36.2783 160.967 36.6303C160.455 36.9823 159.943 37.2383 159.367 37.4303C158.791 37.6223 158.247 37.7183 157.735 37.7183ZM167.212 37.7183H165.164L170.796 21.3663H172.844L167.212 37.7183ZM178.123 21.3663L181.483 27.9583L189.387 21.3663H191.979L182.187 29.5583L186.347 37.7183H183.755L180.395 31.1583L172.491 37.7183H169.899L179.691 29.5583L175.531 21.3663H178.123Z" fill="white"/>
<path d="M70.698 52.7183C70.446 52.7183 70.236 52.6763 70.054 52.5923C69.858 52.5083 69.718 52.3963 69.606 52.2423C69.494 52.0883 69.424 51.9063 69.396 51.6963C69.368 51.4863 69.41 51.2483 69.494 50.9963L70.782 47.2863C70.852 47.0623 70.824 46.8803 70.712 46.7123C70.6 46.5443 70.418 46.4603 70.166 46.4603H69.676C69.424 46.4603 69.172 46.5443 68.948 46.7123C68.724 46.8803 68.57 47.0623 68.5 47.2863L66.624 52.7183H65.728L67.604 47.2863C67.688 47.0343 67.814 46.8103 67.982 46.6003C68.15 46.3903 68.332 46.2083 68.556 46.0543C68.78 45.9003 69.004 45.7743 69.256 45.6903C69.494 45.6063 69.732 45.5643 69.984 45.5643H70.474C70.698 45.5643 70.908 45.6063 71.104 45.6903C71.286 45.7743 71.44 45.9003 71.552 46.0543C71.664 46.2083 71.734 46.3903 71.762 46.6003C71.79 46.8103 71.762 47.0343 71.678 47.2863L70.39 50.9963C70.306 51.2203 70.334 51.4163 70.446 51.5843C70.558 51.7523 70.754 51.8223 71.006 51.8223H71.482C71.734 51.8223 71.972 51.7523 72.196 51.5843C72.42 51.4163 72.574 51.2203 72.658 50.9963L73.946 47.2863C74.03 47.0343 74.156 46.8103 74.324 46.6003C74.492 46.3903 74.674 46.2083 74.898 46.0543C75.122 45.9003 75.346 45.7743 75.598 45.6903C75.836 45.6063 76.074 45.5643 76.326 45.5643H76.816C77.04 45.5643 77.25 45.6063 77.446 45.6903C77.628 45.7743 77.782 45.9003 77.894 46.0543C78.006 46.2083 78.076 46.3903 78.104 46.6003C78.132 46.8103 78.104 47.0343 78.02 47.2863L76.144 52.7183H75.248L77.124 47.2863C77.194 47.0623 77.166 46.8803 77.054 46.7123C76.942 46.5443 76.76 46.4603 76.508 46.4603H76.018C75.766 46.4603 75.514 46.5443 75.29 46.7123C75.066 46.8803 74.912 47.0623 74.842 47.2863L73.554 50.9963C73.47 51.2483 73.344 51.4863 73.176 51.6963C73.008 51.9063 72.812 52.0883 72.588 52.2423C72.364 52.3963 72.14 52.5083 71.888 52.5923C71.636 52.6763 71.398 52.7183 71.174 52.7183H70.698ZM82.3272 52.7183C82.0752 52.7183 81.8652 52.6763 81.6832 52.5923C81.4872 52.5083 81.3472 52.3963 81.2352 52.2423C81.1232 52.0883 81.0532 51.9063 81.0252 51.6963C80.9972 51.4863 81.0392 51.2483 81.1232 50.9963L82.9992 45.5643H83.8952L82.0192 50.9963C81.9352 51.2203 81.9632 51.4163 82.0752 51.5843C82.1872 51.7523 82.3832 51.8223 82.6352 51.8223H86.2472C86.4992 51.8223 86.7372 51.7523 86.9612 51.5843C87.1852 51.4163 87.3392 51.2203 87.4232 50.9963L89.2992 45.5643H90.1952L88.3192 50.9963C88.2352 51.2483 88.1092 51.4863 87.9412 51.6963C87.7732 51.9063 87.5772 52.0883 87.3532 52.2423C87.1292 52.3963 86.9052 52.5083 86.6532 52.5923C86.4012 52.6763 86.1632 52.7183 85.9392 52.7183H82.3272ZM98.2335 48.7143C98.4575 48.7143 98.6675 48.7563 98.8635 48.8403C99.0595 48.9243 99.2135 49.0503 99.3255 49.1903C99.4375 49.3443 99.4935 49.5263 99.5215 49.7363C99.5495 49.9463 99.5215 50.1703 99.4375 50.4223L99.2415 50.9963C99.1575 51.2483 99.0315 51.4863 98.8635 51.6963C98.6955 51.9063 98.4995 52.0883 98.2755 52.2423C98.0515 52.3963 97.8275 52.5083 97.5755 52.5923C97.3235 52.6763 97.0855 52.7183 96.8615 52.7183H92.1295L92.4375 51.8223H97.1695C97.4215 51.8223 97.6595 51.7523 97.8835 51.5843C98.1075 51.4163 98.2615 51.2203 98.3455 50.9963L98.5415 50.4223C98.6115 50.1983 98.5835 50.0163 98.4715 49.8483C98.3595 49.6943 98.1775 49.6103 97.9255 49.6103H94.9855C94.7335 49.6103 94.5235 49.5683 94.3415 49.4843C94.1595 49.4003 94.0195 49.2883 93.9075 49.1343C93.7955 48.9803 93.7255 48.7983 93.6975 48.5883C93.6695 48.3783 93.7115 48.1403 93.7955 47.8883L94.0055 47.2863C94.0895 47.0343 94.2155 46.8103 94.3835 46.6003C94.5515 46.3903 94.7335 46.2083 94.9575 46.0543C95.1815 45.9003 95.4055 45.7743 95.6575 45.6903C95.8955 45.6063 96.1335 45.5643 96.3855 45.5643H101.117L100.809 46.4603H96.0775C95.8255 46.4603 95.5735 46.5443 95.3495 46.7123C95.1255 46.8803 94.9715 47.0623 94.9015 47.2863L94.6915 47.8883C94.6075 48.1123 94.6355 48.3083 94.7475 48.4763C94.8595 48.6443 95.0415 48.7143 95.2935 48.7143H98.2335ZM103.95 52.7183H103.054L105.518 45.5643H106.414L103.95 52.7183ZM112.293 46.4603C112.041 46.4603 111.789 46.5443 111.565 46.6983C111.341 46.8663 111.187 47.0623 111.117 47.2863L109.829 50.9963C109.745 51.2203 109.773 51.4163 109.885 51.5843C109.997 51.7523 110.193 51.8223 110.445 51.8223H114.057C114.309 51.8223 114.547 51.7523 114.771 51.5843C114.995 51.4163 115.149 51.2203 115.233 50.9963L115.499 50.2403H116.395L116.129 50.9963C116.045 51.2483 115.919 51.4863 115.751 51.6963C115.583 51.9063 115.387 52.0883 115.163 52.2423C114.939 52.3963 114.715 52.5083 114.463 52.5923C114.211 52.6763 113.973 52.7183 113.749 52.7183H110.137C109.885 52.7183 109.675 52.6763 109.493 52.5923C109.297 52.5083 109.157 52.3963 109.045 52.2423C108.933 52.0883 108.863 51.9063 108.835 51.6963C108.807 51.4863 108.849 51.2483 108.933 50.9963L110.221 47.2863C110.305 47.0343 110.431 46.8103 110.599 46.6003C110.767 46.3903 110.949 46.2083 111.173 46.0543C111.397 45.9003 111.621 45.7743 111.873 45.6903C112.111 45.6063 112.349 45.5643 112.601 45.5643H116.213C116.437 45.5643 116.647 45.6063 116.843 45.6903C117.025 45.7743 117.179 45.9003 117.291 46.0543C117.403 46.2083 117.473 46.3903 117.501 46.6003C117.529 46.8103 117.501 47.0343 117.417 47.2863L117.151 48.0423H116.255L116.521 47.2863C116.591 47.0623 116.563 46.8663 116.451 46.6983C116.339 46.5443 116.157 46.4603 115.905 46.4603H112.293ZM129.245 51.8223H132.857C133.109 51.8223 133.347 51.7523 133.571 51.5843C133.795 51.4303 133.949 51.2343 134.033 50.9963L134.243 50.3943C134.313 50.1703 134.285 49.9883 134.173 49.8203C134.061 49.6523 133.879 49.5683 133.627 49.5683H131.009L131.331 48.6723H133.949C134.173 48.6723 134.383 48.7143 134.579 48.7983C134.761 48.8823 134.915 49.0083 135.027 49.1623C135.139 49.3163 135.195 49.4983 135.223 49.7083C135.251 49.9183 135.223 50.1423 135.139 50.3943L134.929 50.9963C134.845 51.2483 134.719 51.4863 134.551 51.6963C134.383 51.9063 134.187 52.0883 133.963 52.2423C133.739 52.3963 133.515 52.5083 133.263 52.5923C133.011 52.6763 132.773 52.7183 132.549 52.7183H128.937C128.685 52.7183 128.475 52.6763 128.293 52.5923C128.097 52.5083 127.957 52.3963 127.845 52.2423C127.733 52.0883 127.663 51.9063 127.635 51.6963C127.607 51.4863 127.649 51.2483 127.733 50.9963L129.021 47.2863C129.105 47.0343 129.231 46.8103 129.399 46.6003C129.567 46.3903 129.749 46.2083 129.973 46.0543C130.197 45.9003 130.421 45.7743 130.673 45.6903C130.911 45.6063 131.149 45.5643 131.401 45.5643H136.805L136.497 46.4603H131.093C130.841 46.4603 130.589 46.5443 130.365 46.7123C130.141 46.8803 129.987 47.0623 129.917 47.2863L128.629 50.9963C128.545 51.2343 128.573 51.4303 128.685 51.5843C128.797 51.7523 128.993 51.8223 129.245 51.8223ZM142.996 45.5643H146.608C146.832 45.5643 147.042 45.6063 147.238 45.6903C147.42 45.7743 147.574 45.9003 147.686 46.0543C147.798 46.2083 147.868 46.3903 147.896 46.6003C147.924 46.8103 147.896 47.0343 147.812 47.2863L147.084 49.3863C146.916 49.8343 146.65 50.2123 146.286 50.5063C145.908 50.8003 145.516 50.9823 145.096 51.0663L145.936 52.7183H144.802L143.976 51.1083H141.092C140.77 51.1083 140.49 51.0383 140.266 50.8703L139.636 52.7183H138.74L140.616 47.2863C140.7 47.0343 140.826 46.8103 140.994 46.6003C141.162 46.3903 141.344 46.2083 141.568 46.0543C141.792 45.9003 142.016 45.7743 142.268 45.6903C142.506 45.6063 142.744 45.5643 142.996 45.5643ZM141.4 50.2123H145.012C145.264 50.2123 145.502 50.1423 145.726 49.9743C145.95 49.8203 146.104 49.6243 146.188 49.3863L146.916 47.2863C146.986 47.0623 146.958 46.8803 146.846 46.7123C146.734 46.5443 146.552 46.4603 146.3 46.4603H142.688C142.436 46.4603 142.184 46.5443 141.96 46.7123C141.736 46.8803 141.582 47.0623 141.512 47.2863L140.756 49.4563C140.7 49.6803 140.742 49.8623 140.854 50.0023C140.966 50.1423 141.148 50.2123 141.4 50.2123ZM152.126 52.7183C151.874 52.7183 151.664 52.6763 151.482 52.5923C151.286 52.5083 151.146 52.3963 151.034 52.2423C150.922 52.0883 150.852 51.9063 150.824 51.6963C150.796 51.4863 150.838 51.2483 150.922 50.9963L152.21 47.2863C152.294 47.0343 152.42 46.8103 152.588 46.6003C152.756 46.3903 152.938 46.2083 153.162 46.0543C153.386 45.9003 153.61 45.7743 153.862 45.6903C154.1 45.6063 154.338 45.5643 154.59 45.5643H158.202C158.426 45.5643 158.636 45.6063 158.832 45.6903C159.014 45.7743 159.168 45.9003 159.28 46.0543C159.392 46.2083 159.462 46.3903 159.49 46.6003C159.518 46.8103 159.49 47.0343 159.406 47.2863L158.118 50.9963C158.034 51.2483 157.908 51.4863 157.74 51.6963C157.572 51.9063 157.376 52.0883 157.152 52.2423C156.928 52.3963 156.704 52.5083 156.452 52.5923C156.2 52.6763 155.962 52.7183 155.738 52.7183H152.126ZM154.282 46.4603C154.03 46.4603 153.778 46.5443 153.554 46.6983C153.33 46.8663 153.176 47.0623 153.106 47.2863L151.818 50.9963C151.734 51.2203 151.762 51.4163 151.874 51.5843C151.986 51.7523 152.182 51.8223 152.434 51.8223H156.046C156.298 51.8223 156.536 51.7523 156.76 51.5843C156.984 51.4163 157.138 51.2203 157.222 50.9963L158.51 47.2863C158.58 47.0623 158.552 46.8663 158.44 46.6983C158.328 46.5443 158.146 46.4603 157.894 46.4603H154.282ZM163.72 52.7183C163.468 52.7183 163.258 52.6763 163.076 52.5923C162.88 52.5083 162.74 52.3963 162.628 52.2423C162.516 52.0883 162.446 51.9063 162.418 51.6963C162.39 51.4863 162.432 51.2483 162.516 50.9963L164.392 45.5643H165.288L163.412 50.9963C163.328 51.2203 163.356 51.4163 163.468 51.5843C163.58 51.7523 163.776 51.8223 164.028 51.8223H167.64C167.892 51.8223 168.13 51.7523 168.354 51.5843C168.578 51.4163 168.732 51.2203 168.816 50.9963L170.692 45.5643H171.588L169.712 50.9963C169.628 51.2483 169.502 51.4863 169.334 51.6963C169.166 51.9063 168.97 52.0883 168.746 52.2423C168.522 52.3963 168.298 52.5083 168.046 52.5923C167.794 52.6763 167.556 52.7183 167.332 52.7183H163.72ZM177.779 45.5643H181.391C181.615 45.5643 181.825 45.6063 182.021 45.6903C182.203 45.7743 182.357 45.9003 182.469 46.0543C182.581 46.2083 182.651 46.3903 182.679 46.6003C182.707 46.8103 182.679 47.0343 182.595 47.2863L181.867 49.4003C181.783 49.6523 181.643 49.8903 181.475 50.1003C181.307 50.3103 181.111 50.4923 180.887 50.6463C180.663 50.8003 180.439 50.9123 180.187 50.9963C179.935 51.0803 179.697 51.1223 179.473 51.1223H175.861C175.525 51.1223 175.259 51.0523 175.049 50.8843L174.419 52.7183H173.523L175.399 47.2863C175.483 47.0343 175.609 46.8103 175.777 46.6003C175.945 46.3903 176.127 46.2083 176.351 46.0543C176.575 45.9003 176.799 45.7743 177.051 45.6903C177.289 45.6063 177.527 45.5643 177.779 45.5643ZM176.169 50.2263H179.781C180.033 50.2263 180.271 50.1563 180.495 49.9883C180.719 49.8343 180.887 49.6383 180.971 49.4003L181.699 47.2863C181.769 47.0623 181.741 46.8803 181.629 46.7123C181.517 46.5443 181.335 46.4603 181.083 46.4603H177.471C177.219 46.4603 176.967 46.5443 176.743 46.7123C176.519 46.8803 176.365 47.0623 176.295 47.2863L175.539 49.4703C175.483 49.6943 175.511 49.8763 175.623 50.0163C175.735 50.1563 175.917 50.2263 176.169 50.2263Z" fill="white"/>
</svg>
