<svg width="120" height="121" viewBox="0 0 120 121" fill="none" xmlns="http://www.w3.org/2000/svg">
<g clip-path="url(#clip0_1337_190)">
<path fill-rule="evenodd" clip-rule="evenodd" d="M89.055 68C87.3861 74.4378 83.628 80.1396 78.3697 84.2116C73.1115 88.2835 66.6505 90.4953 60 90.5C53.3495 90.4953 46.8885 88.2835 41.6303 84.2116C36.3721 80.1396 32.6139 74.4378 30.945 68H89.055ZM0 60.5C0 27.365 26.925 0.5 60 0.5C93.135 0.5 120 27.425 120 60.5C120 93.635 93.075 120.5 60 120.5C26.865 120.5 0 93.575 0 60.5ZM15 60.5C15 85.3025 35.145 105.5 60 105.5C84.8025 105.5 105 85.355 105 60.5C105 35.6975 84.855 15.5 60 15.5C35.1975 15.5 15 35.645 15 60.5ZM37.5 38H52.5V53H37.5V38ZM67.5 38H82.5V53H67.5V38Z" fill="#DEDFDF"/>
</g>
<defs>
<clipPath id="clip0_1337_190">
<rect width="120" height="120" fill="white" transform="translate(0 0.5)"/>
</clipPath>
</defs>
</svg>
