<svg width="439" height="347" viewBox="0 0 439 347" fill="none" xmlns="http://www.w3.org/2000/svg">
<path d="M312.312 281.438L343.188 250.562V80.75M19 19H420.375V327.75H19V19ZM281.438 173.375C281.438 233.056 233.056 281.438 173.375 281.438C113.694 281.438 65.3125 233.056 65.3125 173.375C65.3125 113.694 113.694 65.3125 173.375 65.3125C233.056 65.3125 281.438 113.694 281.438 173.375ZM204.25 173.375C204.25 190.427 190.427 204.25 173.375 204.25C156.323 204.25 142.5 190.427 142.5 173.375C142.5 156.323 156.323 142.5 173.375 142.5C190.427 142.5 204.25 156.323 204.25 173.375ZM358.625 80.75C358.625 89.2759 351.713 96.1875 343.188 96.1875C334.662 96.1875 327.75 89.2759 327.75 80.75C327.75 72.2241 334.662 65.3125 343.188 65.3125C351.713 65.3125 358.625 72.2241 358.625 80.75Z" stroke="#FF5025" stroke-width="37" stroke-miterlimit="10" stroke-linecap="round" stroke-linejoin="round"/>
</svg>
