<svg width="418" height="418" viewBox="0 0 418 418" fill="none" xmlns="http://www.w3.org/2000/svg">
<path d="M388.356 62.0625L402.25 46.625L371.375 15.75L355.938 29.6438V0.3125H325.062V31.1875H354.224L325.062 57.4312V31.1875H294.188V62.0625H319.922L235.973 136.379L0.875 237.139V291.572L110.728 307.272L126.428 417.125H180.861L281.621 182.027L355.938 98.0782V123.812H386.812V92.9375H360.569L386.812 63.7761V92.9375H417.688V62.0625H388.356ZM160.514 386.25H153.197L138.022 279.978L31.75 264.803V257.486L228.902 172.996L244.988 189.082L160.514 386.25ZM139.812 225.484L192.516 278.188L170.688 300.016L117.984 247.312L139.812 225.484Z" fill="#FF5025"/>
</svg>
